<?xml version="1.0" encoding="utf-8"?>
<!-- Generator: Adobe Illustrator 21.1.0, SVG Export Plug-In . SVG Version: 6.00 Build 0)  -->
<svg version="1.1" id="Calque_1" xmlns="http://www.w3.org/2000/svg" xmlns:xlink="http://www.w3.org/1999/xlink" x="0px" y="0px"
	 viewBox="0 0 1920 1080" style="enable-background:new 0 0 1920 1080;" xml:space="preserve">
<style type="text/css">
	.st0{clip-path:url(#SVGID_2_);}
	.st1{fill:url(#SVGID_3_);}
	.st2{fill:url(#SVGID_4_);}
	.st3{fill:url(#SVGID_5_);}
	.st4{fill:url(#SVGID_6_);}
	.st5{fill:url(#SVGID_7_);}
	.st6{fill:url(#SVGID_8_);}
	.st7{fill:url(#SVGID_9_);}
</style>
<g>
	<defs>
		<rect id="SVGID_1_" x="-320" y="-520" width="2560" height="1600"/>
	</defs>
	<clipPath id="SVGID_2_">
		<use xlink:href="#SVGID_1_"  style="overflow:visible;"/>
	</clipPath>
	<g class="st0">
		<linearGradient id="SVGID_3_" gradientUnits="userSpaceOnUse" x1="403.4594" y1="1648.1366" x2="1534.9775" y2="516.6185">
			<stop  offset="0" style="stop-color:#EA2F7C"/>
			<stop  offset="1" style="stop-color:#0A1432"/>
		</linearGradient>
		<circle class="st1" cx="960" cy="1091.6" r="699.4"/>
		<g>
			<linearGradient id="SVGID_4_" gradientUnits="userSpaceOnUse" x1="382.8393" y1="1397.526" x2="806.6981" y2="106.8568">
				<stop  offset="0" style="stop-color:#EA2F7C"/>
				<stop  offset="1" style="stop-color:#0A1432"/>
			</linearGradient>
			<path class="st2" d="M308.1,1345.3l174.8-423.5c0,0-53.5,245.7,45.8,169.8c66.8-51,238.7-442.8,344.2-694
				c-34.2,4.2-67.6,11-100.1,20c-99.7,211.8-232.7,470.9-232.7,470.9s45.8-286.1-61.1-93.9c-70.9,127.5-155.3,322.3-204.1,438.9
				C282.9,1272,294.1,1309.4,308.1,1345.3z"/>
			<linearGradient id="SVGID_5_" gradientUnits="userSpaceOnUse" x1="688.6473" y1="1497.9539" x2="1112.5055" y2="207.2864">
				<stop  offset="0" style="stop-color:#EA2F7C"/>
				<stop  offset="1" style="stop-color:#0A1432"/>
			</linearGradient>
			<path class="st3" d="M651.3,1719.3c68.5-205.5,223.6-654.2,328-830.9c101.7-172.1,232.6-344.3,293.9-422.3
				c-13.1-6.6-26.4-12.8-39.9-18.5c-71.8,123.6-192.9,322.1-234.9,331.7c-44.4,10.2,80.4-229,152-360.8c-21.4-6-43.3-11.1-65.5-15.1
				c-22,76.1-49.5,158.5-67.5,168.5c-19.6,10.9-3.2-88.4,14.5-175.9c-13.5-1.4-27.2-2.3-41-2.9c-39.7,176.7-117.3,495.2-187.3,621.8
				C733.3,1142,536.3,1403.5,427.5,1545c9.1,10.6,18.4,21,28.1,31.1c66.2-93.3,154.7-209.1,199.1-229.1
				c53.5-24.1-26.1,195.7-78.6,329.3C600.2,1692.1,625.3,1706.5,651.3,1719.3z"/>
			<linearGradient id="SVGID_6_" gradientUnits="userSpaceOnUse" x1="1021.8524" y1="1607.38" x2="1445.7125" y2="316.7068">
				<stop  offset="0" style="stop-color:#EA2F7C"/>
				<stop  offset="1" style="stop-color:#0A1432"/>
			</linearGradient>
			<path class="st4" d="M1018.1,1788.6c37.4-200.3,119.4-614,190.4-792.9c65.8-165.9,168-331.8,225.1-418.8
				c-22-20.3-45.3-39.1-69.8-56.5c-58.1,128.3-252.5,564.1-316.4,791.3c-47.9,170.2-85.3,361.7-106.2,479.1c6.3,0.2,12.6,0.3,19,0.3
				C979.6,1791,998.9,1790.2,1018.1,1788.6z"/>
			<linearGradient id="SVGID_7_" gradientUnits="userSpaceOnUse" x1="855.0571" y1="1552.604" x2="1278.9154" y2="261.9364">
				<stop  offset="0" style="stop-color:#EA2F7C"/>
				<stop  offset="1" style="stop-color:#0A1432"/>
			</linearGradient>
			<path class="st5" d="M1028.9,995.7c-41.5,23.7-214.3,533.3-289.4,759.8c29.2,9.7,59.3,17.5,90.1,23.3
				C906.3,1526,1070.3,972,1028.9,995.7z"/>
			<linearGradient id="SVGID_8_" gradientUnits="userSpaceOnUse" x1="1264.7548" y1="1687.1498" x2="1688.6132" y2="396.4815">
				<stop  offset="0" style="stop-color:#EA2F7C"/>
				<stop  offset="1" style="stop-color:#0A1432"/>
			</linearGradient>
			<path class="st6" d="M1403.1,1632.8c18.5-224.8,61.9-640.3,145.4-919.3c-17.7-27.5-37.3-53.7-58.6-78.4
				c-54.7,195.4-160.8,565.3-231.8,758.5c-60.3,164.3-105.1,297.8-131,377.3c31.4-7.7,62-17.5,91.6-29.3
				c32.4-134.2,98-388.7,142.5-444.3c44.3-55.3-3.7,228.6-33.4,389.3C1354,1670.3,1379.2,1652.3,1403.1,1632.8z"/>
			<linearGradient id="SVGID_9_" gradientUnits="userSpaceOnUse" x1="1398.1366" y1="1730.9517" x2="1821.9945" y2="440.2852">
				<stop  offset="0" style="stop-color:#EA2F7C"/>
				<stop  offset="1" style="stop-color:#0A1432"/>
			</linearGradient>
			<path class="st7" d="M1630.4,891.8c-26,103.9-61.3,254.9-70.7,341.2c-8.7,80.3,48.5-43.4,99.3-164.3
				C1657,1007.4,1647.1,948.1,1630.4,891.8z"/>
		</g>
	</g>
</g>
</svg>
