<?xml version="1.0" encoding="utf-8"?>
<!-- Generator: Adobe Illustrator 21.1.0, SVG Export Plug-In . SVG Version: 6.00 Build 0)  -->
<svg version="1.1" id="Calque_1" xmlns="http://www.w3.org/2000/svg" xmlns:xlink="http://www.w3.org/1999/xlink" x="0px" y="0px"
	 viewBox="0 0 1920 1080" style="enable-background:new 0 0 1920 1080;" xml:space="preserve">
<style type="text/css">
	.st0{fill:#EB307C;}
	.st1{fill:#1D1044;}
	.st2{fill:url(#SVGID_1_);}
	.st3{fill:url(#SVGID_2_);}
	.st4{fill:url(#SVGID_3_);}
	.st5{fill:url(#SVGID_4_);}
	.st6{fill:url(#SVGID_5_);}
	.st7{fill:url(#SVGID_6_);}
	.st8{fill:url(#SVGID_7_);}
	.st9{fill:url(#SVGID_8_);}
	.st10{fill:url(#SVGID_9_);}
	.st11{fill:url(#SVGID_10_);}
	.st12{fill:#0A1432;stroke:#0A1432;stroke-width:0.8097;}
	.st13{fill:none;stroke:#00E7F0;stroke-width:1.6195;stroke-miterlimit:10;}
	.st14{fill:none;stroke:#0A1432;stroke-width:1.511;}
	.st15{fill:none;stroke:#0A1432;stroke-width:4.5329;}
	.st16{fill:none;stroke:#0A1432;stroke-width:6.0438;}
</style>
<g>
	<path class="st0" d="M555.7,318.3c16.7,0,26.1,6.8,30.7,11.1l-7.4,16.7h-0.6c-6.1-4.9-13.3-8-21.3-8c-7,0-12.1,3.7-12.1,9.8
		c0,10.4,16.4,11.8,28.5,20.1c7,4.9,12.8,12.6,12.8,23.7c0,17.8-14,30.7-33.5,30.7c-16.3,0-27.4-7-32.1-11.8l7.4-16.7h0.6
		c5.6,4.6,14.1,8.7,22.7,8.7c7,0,12.1-3.7,12.1-9.8c0-10.4-16.4-11.8-28.5-20.1c-7-4.9-12.8-12.6-12.8-23.7
		C522.1,331.1,536.1,318.3,555.7,318.3 M555.7,312.6c-22.7,0-39.2,15.3-39.2,36.4c0,11.4,5.4,21.5,15.3,28.3
		c4.7,3.2,9.9,5.5,14.5,7.4c10.9,4.7,11.6,6.2,11.6,8c0,3.9-4.9,4.2-6.5,4.2c-7.4,0-14.7-3.8-19.1-7.4l-1.6-1.3h-2h-0.6h-3.7
		l-1.5,3.4l-7.4,16.7l-1.6,3.5l2.7,2.7c6.4,6.6,19.2,13.6,36.2,13.6c22.7,0,39.2-15.3,39.2-36.4c0-11.4-5.4-21.5-15.3-28.3
		c-4.7-3.2-9.9-5.5-14.5-7.4c-10.9-4.7-11.6-6.2-11.6-8c0-3.9,4.9-4.2,6.5-4.2c6.1,0,12.1,2.3,17.7,6.8l1.5,1.2h2h0.6h3.7l1.5-3.4
		l7.4-16.7l1.6-3.7l-2.9-2.8C581.4,317,569.5,312.6,555.7,312.6L555.7,312.6z"/>
</g>
<g>
	<path class="st0" d="M640.9,320.4c11.8,0,19.7,3.3,25.4,8.8c5.7,5.6,9.3,13.4,9.3,22.1c0,9.4-3.6,17.6-9.3,23.4
		c-5.7,5.7-13.6,9.1-25.4,9.1h-16v36.4h-22.1v-99.9H640.9 M624.9,365.1h12.3c6.6,0,9.8-1.3,12.1-3.4c2.4-2.3,3.7-5.4,3.7-9
		c0-3.9-1.4-7.1-3.7-9.6c-2.3-2.4-5.6-3.9-12.1-3.9h-12.3V365.1 M640.9,314.8h-38.1h-5.7v5.7v99.9v5.7h5.7h22.1h5.7v-5.7v-30.7h10.3
		c12.5,0,22.1-3.5,29.4-10.8l0,0l0,0c7-7.2,10.9-16.9,10.9-27.4c0-10-3.9-19.3-11-26.2C663,318.2,653.4,314.8,640.9,314.8
		L640.9,314.8z M630.6,344.9h6.6c6.1,0,7.4,1.4,8,2.1c1.4,1.5,2.2,3.5,2.2,5.7c0,2-0.6,3.7-1.9,4.9c-0.6,0.6-2,1.9-8.2,1.9h-6.6
		V344.9L630.6,344.9z"/>
</g>
<g>
	<path class="st0" d="M727.7,320.4l45.7,99.9h-22.8l-9.8-22.1h-41.4l-9.8,22.1H667l45.7-99.9H727.7 M707.7,379.7h24.5l-12-26.7h-0.6
		L707.7,379.7 M731.3,314.8h-3.6h-15H709l-1.5,3.3L661.8,418l-3.7,8h8.8h22.4h3.7l1.5-3.4l8.4-18.8h34l8.4,18.8l1.5,3.4h3.7h22.8
		h8.8l-3.7-8l-45.7-99.9L731.3,314.8L731.3,314.8z M716.4,374l3.5-7.8l3.5,7.8H716.4L716.4,374z"/>
</g>
<g>
	<path class="st0" d="M825.6,318.3c19.4,0,31.7,8.7,38.5,15.6l-9.7,15.1h-0.6c-6.4-5.9-15.3-11.1-26.8-11.1c-19.1,0-31,14.1-31,32.5
		s11.1,32.5,31,32.5c12.1,0,22-7.1,27.4-12.6h0.6l10.6,14.7c-7,8-19.8,17.4-40,17.4c-30.5,0-52.1-22-52.1-51.4
		C773.5,340.3,795.7,318.3,825.6,318.3 M825.6,312.6c-16,0-30.7,5.9-41.3,16.5c-10.6,10.7-16.5,25.6-16.5,42
		c0,15.8,5.8,30.3,16.3,40.7c10.6,10.5,25.3,16.3,41.5,16.3c23.8,0,37.9-12.1,44.2-19.3l3-3.4l-2.6-3.7l-10.6-14.7l-1.7-2.4H855
		h-0.6H852l-1.7,1.7c-3.3,3.3-12.1,10.9-23.4,10.9c-12.2,0-25.3-7.1-25.3-26.9c0-16.1,10.2-26.9,25.3-26.9c8.2,0,16,3.2,23,9.7
		l1.6,1.5h2.2h0.6h3.1l1.7-2.6l9.7-15.1l2.5-3.8l-3.2-3.2C860.3,322,846.5,312.6,825.6,312.6L825.6,312.6z"/>
</g>
<g>
	<path class="st0" d="M937.9,320.4v18.8h-37.8v20.4h34.3v18.6h-34.3v23.3h37.8v18.8h-59.9v-99.9H937.9 M943.5,314.8h-5.7h-59.9h-5.7
		v5.7v99.9v5.7h5.7h59.9h5.7v-5.7v-18.8v-5.7h-5.7h-32.2v-11.9h28.6h5.7v-5.7v-18.6V354h-5.7h-28.6v-9.1h32.2h5.7v-5.7v-18.8V314.8
		L943.5,314.8z"/>
</g>
<g>
	<path class="st0" d="M1000.1,318.3c29.8,0,51.4,22,51.4,51.4c0,25.7-15,45.2-37.1,51v0.6c11.6,10.4,26.8,12.4,37.8,12.7l-5.3,17.8
		c-20.6,0-43.1-10.3-58.2-30.4c-23.8-4.9-40-24.7-40-50.2C948.7,340.3,970.3,318.3,1000.1,318.3 M1000.1,402.9
		c17,0,28.8-13.4,28.8-32.5s-11.8-32.5-28.8-32.5c-17,0-28.8,13.4-28.8,32.5S983.1,402.9,1000.1,402.9 M1000.1,312.6
		c-33.1,0-57,24.6-57,58.5c0,27.2,16.9,49.2,42.4,55.3c15.4,19.4,38.2,31,61.5,31h4.2l1.2-4.1l5.3-17.8l2.1-7.1l-7.4-0.2
		c-10.6-0.3-19.3-2.2-26.3-5.8c19.2-9.2,31.1-28.9,31.1-52.7c0-15.8-5.7-30.2-16.2-40.7C1030.5,318.4,1016,312.6,1000.1,312.6
		L1000.1,312.6z M1000.1,397.3c-13.9,0-23.2-10.8-23.2-26.9c0-16.1,9.3-26.9,23.2-26.9s23.2,10.8,23.2,26.9
		C1023.3,386.5,1014,397.3,1000.1,397.3L1000.1,397.3z"/>
</g>
<g>
	<path class="st0" d="M1151.1,320.4v56.8c0,14.7-4.4,25.3-12,32.8c-7.7,7.7-18.7,12.4-31.3,12.4c-12.1,0-23-4.1-30.4-11.7
		c-7.3-7.4-11.3-18.4-11.3-33.5v-56.8h22.1v59.7c0,8.7,2.3,13.7,6,17.3c3.6,3.6,8.7,5.9,14.4,5.9c5.7,0,10.7-2.3,14.3-5.9
		c3.7-3.6,6-8.6,6-17.3v-59.7H1151.1 M1156.8,314.8h-5.7H1129h-5.7v5.7v59.7c0,8-2.2,11.2-4.3,13.2l0,0l0,0
		c-2.7,2.7-6.3,4.2-10.3,4.2c-3.9,0-7.7-1.5-10.4-4.2l0,0l0,0c-2.1-2-4.3-5.2-4.3-13.2v-59.7v-5.7h-5.7h-22.1h-5.7v5.7v56.8
		c0,16.2,4.3,28.8,12.9,37.5c8.5,8.6,20.7,13.4,34.4,13.4c13.7,0,26.2-5,35.3-14.1c9.1-9.1,13.6-21.4,13.6-36.8v-56.8V314.8
		L1156.8,314.8z"/>
</g>
<g>
	<path class="st0" d="M1230.9,320.4v18.8h-37.8v20.4h34.3v18.6h-34.3v23.3h37.8v18.8h-59.9v-99.9H1230.9 M1236.5,314.8h-5.7h-59.9
		h-5.7v5.7v99.9v5.7h5.7h59.9h5.7v-5.7v-18.8v-5.7h-5.7h-32.2v-11.9h28.6h5.7v-5.7v-18.6V354h-5.7h-28.6v-9.1h32.2h5.7v-5.7v-18.8
		V314.8L1236.5,314.8z"/>
</g>
<g>
	<path class="st0" d="M1278,318.3c16.7,0,26.1,6.8,30.7,11.1l-7.4,16.7h-0.6c-6.1-4.9-13.3-8-21.3-8c-7,0-12.1,3.7-12.1,9.8
		c0,10.4,16.4,11.8,28.5,20.1c7,4.9,12.8,12.6,12.8,23.7c0,17.8-14,30.7-33.5,30.7c-16.3,0-27.4-7-32.1-11.8l7.4-16.7h0.6
		c5.6,4.6,14.1,8.7,22.7,8.7c7,0,12.1-3.7,12.1-9.8c0-10.4-16.4-11.8-28.5-20.1c-7-4.9-12.8-12.6-12.8-23.7
		C1244.4,331.1,1258.4,318.3,1278,318.3 M1278,312.6c-22.7,0-39.2,15.3-39.2,36.4c0,11.4,5.4,21.5,15.3,28.3
		c4.7,3.2,9.9,5.5,14.5,7.4c10.9,4.7,11.6,6.2,11.6,8c0,3.9-4.9,4.2-6.5,4.2c-7.4,0-14.7-3.8-19.1-7.4l-1.6-1.3h-2h-0.6h-3.7
		l-1.5,3.4l-7.4,16.7l-1.6,3.5l2.7,2.7c6.4,6.6,19.2,13.6,36.2,13.6c22.7,0,39.2-15.3,39.2-36.4c0-11.4-5.4-21.5-15.3-28.3
		c-4.7-3.2-9.9-5.5-14.5-7.4c-10.9-4.7-11.6-6.2-11.6-8c0-3.9,4.9-4.2,6.5-4.2c6.1,0,12.1,2.3,17.7,6.8l1.5,1.2h2h0.6h3.7l1.5-3.4
		l7.4-16.7l1.6-3.7l-2.9-2.8C1303.7,317,1291.7,312.6,1278,312.6L1278,312.6z"/>
</g>
<g>
	<path class="st0" d="M1401.3,320.4v19.3h-31.4v80.6h-22.1v-80.6h-31.4v-19.3H1401.3 M1406.9,314.8h-5.7h-84.9h-5.7v5.7v19.3v5.7
		h5.7h25.7v75v5.7h5.7h22.1h5.7v-5.7v-75h25.7h5.7v-5.7v-19.3V314.8L1406.9,314.8z"/>
</g>
<g>
	<path class="st1" d="M555.7,316c16.7,0,26.1,6.8,30.7,11.1l-7.4,16.7h-0.6c-6.1-4.9-13.3-8-21.3-8c-7,0-12.1,3.7-12.1,9.8
		c0,10.4,16.4,11.8,28.5,20.1c7,4.9,12.8,12.6,12.8,23.7c0,17.8-14,30.7-33.5,30.7c-16.3,0-27.4-7-32.1-11.8l7.4-16.7h0.6
		c5.6,4.6,14.1,8.7,22.7,8.7c7,0,12.1-3.7,12.1-9.8c0-10.4-16.4-11.8-28.5-20.1c-7-4.9-12.8-12.6-12.8-23.7
		C522.1,328.8,536.1,316,555.7,316 M555.7,311.9c-21.8,0-37.6,14.6-37.6,34.7c0,14,7.9,22.4,14.6,27c4.6,3.1,9.7,5.3,14.2,7.3
		c7.8,3.4,12.6,5.6,12.6,9.5c0,2.8-2.1,5.8-8.1,5.8c-7.8,0-15.5-4-20.1-7.8l-1.1-0.9h-1.4h-0.6h-2.6l-1.1,2.4l-7.4,16.7l-1.1,2.5
		l1.9,2c6.1,6.3,18.6,13.1,35,13.1c21.8,0,37.6-14.6,37.6-34.7c0-14-7.9-22.4-14.6-27c-4.6-3.1-9.7-5.3-14.2-7.3
		c-7.8-3.4-12.6-5.6-12.6-9.5c0-2.8,2.1-5.8,8.1-5.8c6.5,0,12.8,2.4,18.8,7.1l1.1,0.9h1.4h0.6h2.6l1.1-2.4l7.4-16.7l1.2-2.6l-2.1-2
		C580.6,316.2,569,311.9,555.7,311.9L555.7,311.9z"/>
</g>
<g>
	<path class="st1" d="M640.9,318.1c11.8,0,19.7,3.3,25.4,8.8c5.7,5.6,9.3,13.4,9.3,22.1c0,9.4-3.6,17.6-9.3,23.4
		c-5.7,5.7-13.6,9.1-25.4,9.1h-16V418h-22.1v-99.9H640.9 M624.9,362.8h12.3c6.6,0,9.8-1.3,12.1-3.4c2.4-2.3,3.7-5.4,3.7-9
		c0-3.9-1.4-7.1-3.7-9.6c-2.3-2.4-5.6-3.9-12.1-3.9h-12.3V362.8 M640.9,314.1h-38.1h-4v4V418v4h4h22.1h4v-4v-32.3h11.9
		c12.1,0,21.3-3.4,28.3-10.3l0,0l0,0c6.7-6.9,10.4-16.2,10.4-26.2c0-9.5-3.7-18.4-10.5-25C662.2,317.4,653,314.1,640.9,314.1
		L640.9,314.1z M629,341h8.2c5.9,0,7.9,1.2,9.2,2.6c1.7,1.8,2.6,4.2,2.6,6.8c0,2.5-0.8,4.5-2.4,6c-1.2,1.1-3.3,2.3-9.4,2.3H629V341
		L629,341z"/>
</g>
<g>
	<path class="st1" d="M727.7,318.1l45.7,99.9h-22.8l-9.8-22.1h-41.4l-9.8,22.1H667l45.7-99.9H727.7 M707.7,377.4h24.5l-12-26.7h-0.6
		L707.7,377.4 M730.3,314.1h-2.6h-15h-2.6l-1.1,2.4l-45.7,99.9l-2.6,5.7h6.3h22.4h2.6l1.1-2.4l8.8-19.7H738l8.8,19.7l1.1,2.4h2.6
		h22.8h6.3l-2.6-5.7l-45.7-99.9L730.3,314.1L730.3,314.1z M713.9,373.3l6-13.4l6,13.4H713.9L713.9,373.3z"/>
</g>
<g>
	<path class="st1" d="M825.6,316c19.4,0,31.7,8.7,38.5,15.6l-9.7,15.1h-0.6c-6.4-5.9-15.3-11.1-26.8-11.1c-19.1,0-31,14.1-31,32.5
		c0,18.4,11.1,32.5,31,32.5c12.1,0,22-7.1,27.4-12.6h0.6l10.6,14.7c-7,8-19.8,17.4-40,17.4c-30.5,0-52.1-22-52.1-51.4
		C773.5,338,795.7,316,825.6,316 M825.6,311.9c-15.6,0-29.8,5.7-40.1,16c-10.3,10.4-16,24.9-16,40.8c0,15.4,5.6,29.4,15.8,39.6
		c10.3,10.2,24.6,15.8,40.4,15.8c23.1,0,36.9-11.8,43-18.8l2.1-2.4l-1.9-2.6l-10.6-14.7L857,384H855h-0.6h-1.7l-1.2,1.2
		c-3.4,3.4-12.7,11.4-24.5,11.4c-8.3,0-15.2-2.8-19.9-8c-4.6-5.1-7-12.2-7-20.5c0-17,10.8-28.5,26.9-28.5c8.7,0,16.8,3.4,24.1,10.1
		l1.2,1.1h1.6h0.6h2.2l1.2-1.9l9.7-15.1l1.8-2.7l-2.3-2.3C859.3,321,845.9,311.9,825.6,311.9L825.6,311.9z"/>
</g>
<g>
	<path class="st1" d="M937.9,318.1V337h-37.8v20.4h34.3v18.6h-34.3v23.3h37.8V418h-59.9v-99.9H937.9 M941.9,314.1h-4h-59.9h-4v4V418
		v4h4h59.9h4v-4v-18.8v-4h-4h-33.8V380h30.2h4v-4v-18.6v-4h-4h-30.2V341h33.8h4v-4v-18.8V314.1L941.9,314.1z"/>
</g>
<g>
	<path class="st1" d="M1000.1,316c29.8,0,51.4,22,51.4,51.4c0,25.7-15,45.2-37.1,51v0.6c11.6,10.4,26.8,12.4,37.8,12.7l-5.3,17.8
		c-20.6,0-43.1-10.3-58.2-30.4c-23.8-4.9-40-24.7-40-50.2C948.7,338,970.3,316,1000.1,316 M1000.1,400.6c17,0,28.8-13.4,28.8-32.5
		c0-19.1-11.8-32.5-28.8-32.5c-17,0-28.8,13.4-28.8,32.5C971.3,387.2,983.1,400.6,1000.1,400.6 M1000.1,311.9
		c-32.1,0-55.4,23.9-55.4,56.9c0,26.6,16.7,48.1,41.7,53.9c15.1,19.3,37.6,30.8,60.5,30.8h3l0.9-2.9l5.3-17.8l1.5-5.1l-5.3-0.1
		c-12.4-0.3-22.2-2.8-29.9-7.6c20.3-8.3,33.1-28.2,33.1-52.5c0-15.3-5.6-29.4-15.7-39.6C1029.7,317.6,1015.6,311.9,1000.1,311.9
		L1000.1,311.9z M1000.1,396.6c-7.1,0-13.3-2.7-17.8-7.7c-4.5-5.1-7-12.5-7-20.8c0-8.3,2.5-15.6,7-20.8c4.5-5.1,10.6-7.7,17.8-7.7
		s13.3,2.7,17.8,7.7c4.5,5.1,7,12.5,7,20.8c0,8.3-2.5,15.6-7,20.8C1013.4,393.9,1007.2,396.6,1000.1,396.6L1000.1,396.6z"/>
</g>
<g>
	<path class="st1" d="M1151.1,318.1v56.8c0,14.7-4.4,25.3-12,32.8c-7.7,7.7-18.7,12.4-31.3,12.4c-12.1,0-23-4.1-30.4-11.7
		c-7.3-7.4-11.3-18.4-11.3-33.5v-56.8h22.1v59.7c0,8.7,2.3,13.7,6,17.3c3.6,3.6,8.7,5.9,14.4,5.9c5.7,0,10.7-2.3,14.3-5.9
		c3.7-3.6,6-8.6,6-17.3v-59.7H1151.1 M1155.1,314.1h-4H1129h-4v4v59.7c0,8.7-2.5,12.2-4.8,14.4l0,0l0,0c-3,3-7.1,4.7-11.4,4.7
		c-4.4,0-8.6-1.7-11.6-4.7l0,0l0,0c-2.2-2.1-4.8-5.7-4.8-14.3v-59.7v-4h-4h-22.1h-4v4v56.8c0,15.7,4.2,28,12.4,36.4
		c8.2,8.3,20,12.9,33.3,12.9c13.2,0,25.3-4.8,34.1-13.6c8.7-8.7,13.2-20.7,13.2-35.7v-56.8V314.1L1155.1,314.1z"/>
</g>
<g>
	<path class="st1" d="M1230.9,318.1V337h-37.8v20.4h34.3v18.6h-34.3v23.3h37.8V418h-59.9v-99.9H1230.9 M1234.9,314.1h-4h-59.9h-4v4
		V418v4h4h59.9h4v-4v-18.8v-4h-4h-33.8V380h30.2h4v-4v-18.6v-4h-4h-30.2V341h33.8h4v-4v-18.8V314.1L1234.9,314.1z"/>
</g>
<g>
	<path class="st1" d="M1278,316c16.7,0,26.1,6.8,30.7,11.1l-7.4,16.7h-0.6c-6.1-4.9-13.3-8-21.3-8c-7,0-12.1,3.7-12.1,9.8
		c0,10.4,16.4,11.8,28.5,20.1c7,4.9,12.8,12.6,12.8,23.7c0,17.8-14,30.7-33.5,30.7c-16.3,0-27.4-7-32.1-11.8l7.4-16.7h0.6
		c5.6,4.6,14.1,8.7,22.7,8.7c7,0,12.1-3.7,12.1-9.8c0-10.4-16.4-11.8-28.5-20.1c-7-4.9-12.8-12.6-12.8-23.7
		C1244.4,328.8,1258.4,316,1278,316 M1278,311.9c-21.8,0-37.6,14.6-37.6,34.7c0,14,7.9,22.4,14.6,27c4.6,3.1,9.7,5.3,14.2,7.3
		c7.8,3.4,12.6,5.6,12.6,9.5c0,2.8-2.1,5.8-8.1,5.8c-7.8,0-15.5-4-20.1-7.8l-1.1-0.9h-1.4h-0.6h-2.6l-1.1,2.4l-7.4,16.7l-1.1,2.5
		l1.9,2c6.1,6.3,18.6,13.1,35,13.1c21.8,0,37.6-14.6,37.6-34.7c0-14-7.9-22.4-14.6-27c-4.6-3.1-9.7-5.3-14.2-7.3
		c-7.8-3.4-12.6-5.6-12.6-9.5c0-2.8,2.1-5.8,8.1-5.8c6.5,0,12.8,2.4,18.8,7.1l1.1,0.9h1.4h0.6h2.6l1.1-2.4l7.4-16.7l1.2-2.6l-2.1-2
		C1302.9,316.2,1291.3,311.9,1278,311.9L1278,311.9z"/>
</g>
<g>
	<path class="st1" d="M1401.3,318.1v19.3h-31.4V418h-22.1v-80.6h-31.4v-19.3H1401.3 M1405.3,314.1h-4h-84.9h-4v4v19.3v4h4h27.3V418
		v4h4h22.1h4v-4v-76.6h27.3h4v-4v-19.3V314.1L1405.3,314.1z"/>
</g>
<g>
	<g>
		<linearGradient id="SVGID_1_" gradientUnits="userSpaceOnUse" x1="553.5438" y1="338.1608" x2="553.5438" y2="387.3588">
			<stop  offset="1.123600e-02" style="stop-color:#FFDB78"/>
			<stop  offset="8.487789e-02" style="stop-color:#F8C786"/>
			<stop  offset="0.1713" style="stop-color:#F3B692"/>
			<stop  offset="0.236" style="stop-color:#F1B096"/>
			<stop  offset="0.4494" style="stop-color:#A0AFC0"/>
			<stop  offset="0.6966" style="stop-color:#98A7AC"/>
			<stop  offset="1" style="stop-color:#4A7691"/>
		</linearGradient>
		<path class="st2" d="M563.5,390.5c0-10.4-16.4-11.8-28.5-20.1c-7-4.9-12.8-12.6-12.8-23.7c0-17.8,14-30.7,33.5-30.7
			c16.7,0,26.1,6.8,30.7,11.1l-7.4,16.7h-0.6c-6.1-4.9-13.3-8-21.3-8c-7,0-12.1,3.7-12.1,9.8c0,10.4,16.4,11.8,28.5,20.1
			c7,4.9,12.8,12.6,12.8,23.7c0,17.8-14,30.7-33.5,30.7c-16.3,0-27.4-7-32.1-11.8l7.4-16.7h0.6c5.6,4.6,14.1,8.7,22.7,8.7
			C558.4,400.3,563.5,396.6,563.5,390.5z"/>
	</g>
</g>
<g>
	<linearGradient id="SVGID_2_" gradientUnits="userSpaceOnUse" x1="639.1737" y1="338.1608" x2="639.1737" y2="387.3588">
		<stop  offset="1.123600e-02" style="stop-color:#FFDB78"/>
		<stop  offset="8.487789e-02" style="stop-color:#F8C786"/>
		<stop  offset="0.1713" style="stop-color:#F3B692"/>
		<stop  offset="0.236" style="stop-color:#F1B096"/>
		<stop  offset="0.4494" style="stop-color:#A0AFC0"/>
		<stop  offset="0.6966" style="stop-color:#98A7AC"/>
		<stop  offset="1" style="stop-color:#4A7691"/>
	</linearGradient>
	<path class="st3" d="M640.9,318.1c11.8,0,19.7,3.3,25.4,8.8c5.7,5.6,9.3,13.4,9.3,22.1c0,9.4-3.6,17.6-9.3,23.4
		c-5.7,5.7-13.6,9.1-25.4,9.1h-16V418h-22.1v-99.9H640.9z M624.9,337v25.8h12.3c6.6,0,9.8-1.3,12.1-3.4c2.4-2.3,3.7-5.4,3.7-9
		c0-3.9-1.4-7.1-3.7-9.6c-2.3-2.4-5.6-3.9-12.1-3.9H624.9z"/>
</g>
<g>
	<linearGradient id="SVGID_3_" gradientUnits="userSpaceOnUse" x1="720.1655" y1="338.1608" x2="720.1655" y2="387.3588">
		<stop  offset="1.123600e-02" style="stop-color:#FFDB78"/>
		<stop  offset="8.487789e-02" style="stop-color:#F8C786"/>
		<stop  offset="0.1713" style="stop-color:#F3B692"/>
		<stop  offset="0.236" style="stop-color:#F1B096"/>
		<stop  offset="0.4494" style="stop-color:#A0AFC0"/>
		<stop  offset="0.6966" style="stop-color:#98A7AC"/>
		<stop  offset="1" style="stop-color:#4A7691"/>
	</linearGradient>
	<path class="st4" d="M740.6,395.9h-41.4l-9.8,22.1H667l45.7-99.9h15l45.7,99.9h-22.8L740.6,395.9z M707.7,377.4h24.5l-12-26.7h-0.6
		L707.7,377.4z"/>
</g>
<g>
	<linearGradient id="SVGID_4_" gradientUnits="userSpaceOnUse" x1="819.4974" y1="338.1608" x2="819.4974" y2="387.3588">
		<stop  offset="1.123600e-02" style="stop-color:#FFDB78"/>
		<stop  offset="8.487789e-02" style="stop-color:#F8C786"/>
		<stop  offset="0.1713" style="stop-color:#F3B692"/>
		<stop  offset="0.236" style="stop-color:#F1B096"/>
		<stop  offset="0.4494" style="stop-color:#A0AFC0"/>
		<stop  offset="0.6966" style="stop-color:#98A7AC"/>
		<stop  offset="1" style="stop-color:#4A7691"/>
	</linearGradient>
	<path class="st5" d="M796,368.1c0,18.4,11.1,32.5,31,32.5c12.1,0,22-7.1,27.4-12.6h0.6l10.6,14.7c-7,8-19.8,17.4-40,17.4
		c-30.5,0-52.1-22-52.1-51.4c0-30.8,22.3-52.8,52.1-52.8c19.4,0,31.7,8.7,38.5,15.6l-9.7,15.1h-0.6c-6.4-5.9-15.3-11.1-26.8-11.1
		C807.9,335.5,796,349.7,796,368.1z"/>
</g>
<g>
	<linearGradient id="SVGID_5_" gradientUnits="userSpaceOnUse" x1="907.91" y1="338.1608" x2="907.91" y2="387.3588">
		<stop  offset="1.123600e-02" style="stop-color:#FFDB78"/>
		<stop  offset="8.487789e-02" style="stop-color:#F8C786"/>
		<stop  offset="0.1713" style="stop-color:#F3B692"/>
		<stop  offset="0.236" style="stop-color:#F1B096"/>
		<stop  offset="0.4494" style="stop-color:#A0AFC0"/>
		<stop  offset="0.6966" style="stop-color:#98A7AC"/>
		<stop  offset="1" style="stop-color:#4A7691"/>
	</linearGradient>
	<path class="st6" d="M877.9,318.1h59.9V337h-37.8v20.4h34.3v18.6h-34.3v23.3h37.8V418h-59.9V318.1z"/>
</g>
<g>
	<g>
		<linearGradient id="SVGID_6_" gradientUnits="userSpaceOnUse" x1="1000.4628" y1="338.1608" x2="1000.4628" y2="387.3588">
			<stop  offset="1.123600e-02" style="stop-color:#FFDB78"/>
			<stop  offset="8.487789e-02" style="stop-color:#F8C786"/>
			<stop  offset="0.1713" style="stop-color:#F3B692"/>
			<stop  offset="0.236" style="stop-color:#F1B096"/>
			<stop  offset="0.4494" style="stop-color:#A0AFC0"/>
			<stop  offset="0.6966" style="stop-color:#98A7AC"/>
			<stop  offset="1" style="stop-color:#4A7691"/>
		</linearGradient>
		<path class="st7" d="M1000.1,316c29.8,0,51.4,22,51.4,51.4c0,25.7-15,45.2-37.1,51v0.6c11.6,10.4,26.8,12.4,37.8,12.7l-5.3,17.8
			c-20.6,0-43.1-10.3-58.2-30.4c-23.8-4.9-40-24.7-40-50.2C948.7,338,970.3,316,1000.1,316z M1000.1,400.6c17,0,28.8-13.4,28.8-32.5
			c0-19.1-11.8-32.5-28.8-32.5c-17,0-28.8,13.4-28.8,32.5C971.3,387.2,983.1,400.6,1000.1,400.6z"/>
	</g>
</g>
<g>
	<linearGradient id="SVGID_7_" gradientUnits="userSpaceOnUse" x1="1108.6414" y1="338.1608" x2="1108.6414" y2="387.3588">
		<stop  offset="1.123600e-02" style="stop-color:#FFDB78"/>
		<stop  offset="8.487789e-02" style="stop-color:#F8C786"/>
		<stop  offset="0.1713" style="stop-color:#F3B692"/>
		<stop  offset="0.236" style="stop-color:#F1B096"/>
		<stop  offset="0.4494" style="stop-color:#A0AFC0"/>
		<stop  offset="0.6966" style="stop-color:#98A7AC"/>
		<stop  offset="1" style="stop-color:#4A7691"/>
	</linearGradient>
	<path class="st8" d="M1129,318.1h22.1v56.8c0,14.7-4.4,25.3-12,32.8c-7.7,7.7-18.7,12.4-31.3,12.4c-12.1,0-23-4.1-30.4-11.7
		c-7.3-7.4-11.3-18.4-11.3-33.5v-56.8h22.1v59.7c0,8.7,2.3,13.7,6,17.3c3.6,3.6,8.7,5.9,14.4,5.9c5.7,0,10.7-2.3,14.3-5.9
		c3.7-3.6,6-8.6,6-17.3V318.1z"/>
</g>
<g>
	<linearGradient id="SVGID_8_" gradientUnits="userSpaceOnUse" x1="1200.9083" y1="338.1608" x2="1200.9083" y2="387.3588">
		<stop  offset="1.123600e-02" style="stop-color:#FFDB78"/>
		<stop  offset="8.487789e-02" style="stop-color:#F8C786"/>
		<stop  offset="0.1713" style="stop-color:#F3B692"/>
		<stop  offset="0.236" style="stop-color:#F1B096"/>
		<stop  offset="0.4494" style="stop-color:#A0AFC0"/>
		<stop  offset="0.6966" style="stop-color:#98A7AC"/>
		<stop  offset="1" style="stop-color:#4A7691"/>
	</linearGradient>
	<path class="st9" d="M1170.9,318.1h59.9V337h-37.8v20.4h34.3v18.6h-34.3v23.3h37.8V418h-59.9V318.1z"/>
</g>
<g>
	<linearGradient id="SVGID_9_" gradientUnits="userSpaceOnUse" x1="1275.8334" y1="338.1608" x2="1275.8334" y2="387.3588">
		<stop  offset="1.123600e-02" style="stop-color:#FFDB78"/>
		<stop  offset="8.487789e-02" style="stop-color:#F8C786"/>
		<stop  offset="0.1713" style="stop-color:#F3B692"/>
		<stop  offset="0.236" style="stop-color:#F1B096"/>
		<stop  offset="0.4494" style="stop-color:#A0AFC0"/>
		<stop  offset="0.6966" style="stop-color:#98A7AC"/>
		<stop  offset="1" style="stop-color:#4A7691"/>
	</linearGradient>
	<path class="st10" d="M1285.8,390.5c0-10.4-16.4-11.8-28.5-20.1c-7-4.9-12.8-12.6-12.8-23.7c0-17.8,14-30.7,33.5-30.7
		c16.7,0,26.1,6.8,30.7,11.1l-7.4,16.7h-0.6c-6.1-4.9-13.3-8-21.3-8c-7,0-12.1,3.7-12.1,9.8c0,10.4,16.4,11.8,28.5,20.1
		c7,4.9,12.8,12.6,12.8,23.7c0,17.8-14,30.7-33.5,30.7c-16.3,0-27.4-7-32.1-11.8l7.4-16.7h0.6c5.6,4.6,14.1,8.7,22.7,8.7
		C1280.7,400.3,1285.8,396.6,1285.8,390.5z"/>
</g>
<g>
	<linearGradient id="SVGID_10_" gradientUnits="userSpaceOnUse" x1="1358.8229" y1="338.1608" x2="1358.8229" y2="387.3588">
		<stop  offset="1.123600e-02" style="stop-color:#FFDB78"/>
		<stop  offset="8.487789e-02" style="stop-color:#F8C786"/>
		<stop  offset="0.1713" style="stop-color:#F3B692"/>
		<stop  offset="0.236" style="stop-color:#F1B096"/>
		<stop  offset="0.4494" style="stop-color:#A0AFC0"/>
		<stop  offset="0.6966" style="stop-color:#98A7AC"/>
		<stop  offset="1" style="stop-color:#4A7691"/>
	</linearGradient>
	<path class="st11" d="M1347.8,337.4h-31.4v-19.3h84.9v19.3h-31.4V418h-22.1V337.4z"/>
</g>
<g>
	<path class="st12" d="M723.6,268.1c0-4.9-7.7-5.6-13.4-9.4c-3.3-2.3-6-5.9-6-11.1c0-8.4,6.6-14.4,15.7-14.4
		c7.8,0,12.3,3.2,14.4,5.2l-3.5,7.8h-0.3c-2.9-2.3-6.2-3.7-10-3.7c-3.3,0-5.7,1.7-5.7,4.6c0,4.9,7.7,5.6,13.4,9.4
		c3.3,2.3,6,5.9,6,11.1c0,8.4-6.6,14.4-15.7,14.4c-7.6,0-12.9-3.3-15.1-5.6l3.5-7.8h0.3c2.6,2.1,6.6,4.1,10.6,4.1
		C721.1,272.7,723.6,271,723.6,268.1z"/>
	<path class="st12" d="M736.2,248.9h9.6l6,16.3h0.3l5.9-16.3h6.7l6.2,16.7h0.3l6-16.7h9.3L774.6,281h-6.8l-6.6-17.6H761l-6.3,17.6
		H748L736.2,248.9z"/>
	<path class="st12" d="M790.6,232.8h9.7v9h-9.7V232.8z M790.6,248.9h9.7V281h-9.7V248.9z"/>
	<path class="st12" d="M819.8,247.9c2.6,0,7,0.7,10.6,3.4l-2.3,7h-0.3c-2.1-1.3-5.1-2.3-7.5-2.3s-3.7,0.9-3.7,2c0,1.2,0.9,1.9,4,2.7
		c7.3,2.1,10.4,5.6,10.4,10.6c0,6.4-4.9,10.7-12.5,10.7c-3.1,0-8.1-0.7-12-4.1l2.3-7h0.3c2.4,1.7,5.7,3,8.8,3c2.4,0,3.7-0.9,3.7-2
		c0-1.2-0.9-1.9-4-2.7c-7.3-2.1-10.4-5.6-10.4-10.6C807.3,252.2,812.2,247.9,819.8,247.9z"/>
	<path class="st12" d="M849,247.9c2.6,0,7,0.7,10.6,3.4l-2.3,7h-0.3c-2.1-1.3-5.1-2.3-7.5-2.3s-3.7,0.9-3.7,2c0,1.2,0.9,1.9,4,2.7
		c7.3,2.1,10.4,5.6,10.4,10.6c0,6.4-4.9,10.7-12.5,10.7c-3.1,0-8.1-0.7-12-4.1l2.3-7h0.3c2.4,1.7,5.7,3,8.8,3c2.4,0,3.7-0.9,3.7-2
		c0-1.2-0.9-1.9-4-2.7c-7.3-2.1-10.4-5.6-10.4-10.6C836.6,252.2,841.5,247.9,849,247.9z"/>
	<path class="st12" d="M888.6,279.4h-0.3c-2.2,1.6-5,2.7-8,2.7c-8.3,0-15.1-7.1-15.1-16.7c0-10.3,7.6-17.4,15.7-17.4
		c3.9,0,6.8,1.3,8.8,3.1h0.3v-2.1h8.4v46.2h-9.8V279.4z M875.1,265c0,4.8,3,8.4,7.5,8.4c2.6,0,4.6-1.1,6-2.7v-12.4
		c-1.1-0.8-3.2-1.7-5.7-1.7C878.1,256.6,875.1,260.2,875.1,265z"/>
	<path class="st12" d="M925.4,248.9h9.7v17.2c0,5.5-1.5,9.1-4.1,11.7c-2.6,2.6-6.4,4.2-10.8,4.2c-4.2,0-7.8-1.5-10.4-4
		c-2.5-2.5-3.9-6.2-3.9-11.9v-17.2h9.7v18.3c0,2.7,0.5,3.9,1.3,4.8c0.9,0.9,2.1,1.4,3.5,1.4s2.6-0.5,3.5-1.4c0.8-0.9,1.3-2,1.3-4.8
		V248.9z"/>
	<path class="st12" d="M958.1,247.9c10,0,17.1,7.1,17.1,16.7c0,10.3-7.1,17.4-17.1,17.4c-10,0-17.1-7.1-17.1-16.7
		C941,255,948.1,247.9,958.1,247.9z M958.1,273.3c4.2,0,7.2-3.6,7.2-8.4s-3-8.4-7.2-8.4s-7.2,3.6-7.2,8.4S953.9,273.3,958.1,273.3z"
		/>
	<path class="st12" d="M987.8,278.8c-1.9-1.9-3.2-4.5-3.2-8.8v-13.4h-7.4v-7.7h7.4v-11h9.7v11h9.7v7.7h-9.7v10.6
		c0,3.3,0.5,4.4,1.3,5.2c0.9,1.1,2.5,1.5,4.8,1.5c0.8,0,2.5-0.1,3.3-0.3h0.3v7c-1.9,0.9-4.5,1.3-6.4,1.3
		C992.6,282,989.8,280.7,987.8,278.8z"/>
	<path class="st12" d="M1017.7,267.6c0.9,3.8,3.7,6,8.2,6c2.8,0,5.8-0.8,8.4-3h0.3l3.3,6.7c-3.5,3.1-8.2,4.7-13.1,4.7
		c-10.3,0-17.1-6.8-17.1-16.7c0-10,6.8-17.4,16.1-17.4c9.6,0,15.1,7.1,15.1,16.7v3H1017.7z M1029.7,261.3c-0.1-2.5-2-5.4-5.5-5.4
		c-3.1,0-5.5,1.9-6.3,5.4H1029.7z"/>
	<path class="st12" d="M1079,234.2c5.6,0,9.2,1.5,11.9,4.2c2.7,2.6,4.4,6.3,4.4,10.4c0,4.4-1.7,8.2-4.4,11
		c-2.7,2.7-6.4,4.3-11.9,4.3h-7.5V281h-10.4v-46.9H1079z M1071.5,243v12.1h5.8c3.1,0,4.6-0.6,5.7-1.6c1.1-1.1,1.7-2.5,1.7-4.2
		c0-1.8-0.7-3.3-1.7-4.5c-1.1-1.1-2.6-1.8-5.7-1.8H1071.5z"/>
	<path class="st12" d="M1117.1,261.4v-0.5c0-2-0.5-2.9-1.3-3.5c-1.1-0.9-2.8-1.1-4.5-1.1c-3.3,0-7.6,1.7-9.7,3h-0.3l-1.9-7.2
		c3.4-2.4,8.6-4.2,13.4-4.2c4.4,0,7.8,0.9,10.4,3.3c2,2,3.3,4.6,3.3,9.2v14.7c0,2.4,0.3,4.8,0.7,6h-8.6c-0.2-0.8-0.4-1.8-0.4-3h-0.3
		c-2.1,2.3-5.2,3.7-8.4,3.7c-5.4,0-10.4-4.1-10.4-10.3c0-2.4,0.7-4.8,2.3-6.6c2.3-2.5,7-3.9,10.6-3.9
		C1114.6,261,1116.2,261.2,1117.1,261.4z M1117.1,271.3v-3.6c-1-0.3-2.4-0.4-3.6-0.4c-1.4,0-3.8,0.1-5,1.5c-0.3,0.5-0.5,1.2-0.5,1.9
		c0,2.1,1.7,3.3,3.8,3.3C1113.8,274,1115.8,273,1117.1,271.3z"/>
	<path class="st12" d="M1134.2,248.9h8.7v4.1h0.3c2.6-3.3,6-4.8,10.7-4.8h1.4v9h-1.4c-3.7,0-7.6,0.7-10,3.7V281h-9.7V248.9z"/>
	<path class="st12" d="M1167.8,278.8c-1.9-1.9-3.2-4.5-3.2-8.8v-13.4h-7.4v-7.7h7.4v-11h9.7v11h9.7v7.7h-9.7v10.6
		c0,3.3,0.5,4.4,1.3,5.2c0.9,1.1,2.5,1.5,4.8,1.5c0.8,0,2.5-0.1,3.3-0.3h0.3v7c-1.9,0.9-4.5,1.3-6.4,1.3
		C1172.6,282,1169.7,280.7,1167.8,278.8z"/>
	<path class="st12" d="M1201.7,295.1h-9.7l7-16.9l-13.3-29.3h10.1l7.8,18h0.3l7.2-18h9.7L1201.7,295.1z"/>
</g>
<g>
	<path class="st13" d="M723.6,265.8c0-4.9-7.7-5.6-13.4-9.4c-3.3-2.3-6-5.9-6-11.1c0-8.4,6.6-14.4,15.7-14.4
		c7.8,0,12.3,3.2,14.4,5.2l-3.5,7.8h-0.3c-2.9-2.3-6.2-3.7-10-3.7c-3.3,0-5.7,1.7-5.7,4.6c0,4.9,7.7,5.6,13.4,9.4
		c3.3,2.3,6,5.9,6,11.1c0,8.4-6.6,14.4-15.7,14.4c-7.6,0-12.9-3.3-15.1-5.6l3.5-7.8h0.3c2.6,2.1,6.6,4.1,10.6,4.1
		C721.1,270.4,723.6,268.7,723.6,265.8z"/>
	<path class="st13" d="M736.2,246.6h9.6l6,16.3h0.3l5.9-16.3h6.7l6.2,16.7h0.3l6-16.7h9.3l-11.8,32.1h-6.8l-6.6-17.6H761l-6.3,17.6
		H748L736.2,246.6z"/>
	<path class="st13" d="M790.6,230.5h9.7v9h-9.7V230.5z M790.6,246.6h9.7v32.1h-9.7V246.6z"/>
	<path class="st13" d="M819.8,245.6c2.6,0,7,0.7,10.6,3.4l-2.3,7h-0.3c-2.1-1.3-5.1-2.3-7.5-2.3s-3.7,0.9-3.7,2c0,1.2,0.9,1.9,4,2.7
		c7.3,2.1,10.4,5.6,10.4,10.6c0,6.4-4.9,10.7-12.5,10.7c-3.1,0-8.1-0.7-12-4.1l2.3-7h0.3c2.4,1.7,5.7,3,8.8,3c2.4,0,3.7-0.9,3.7-2
		c0-1.2-0.9-1.9-4-2.7c-7.3-2.1-10.4-5.6-10.4-10.6C807.3,250,812.2,245.6,819.8,245.6z"/>
	<path class="st13" d="M849,245.6c2.6,0,7,0.7,10.6,3.4l-2.3,7h-0.3c-2.1-1.3-5.1-2.3-7.5-2.3s-3.7,0.9-3.7,2c0,1.2,0.9,1.9,4,2.7
		c7.3,2.1,10.4,5.6,10.4,10.6c0,6.4-4.9,10.7-12.5,10.7c-3.1,0-8.1-0.7-12-4.1l2.3-7h0.3c2.4,1.7,5.7,3,8.8,3c2.4,0,3.7-0.9,3.7-2
		c0-1.2-0.9-1.9-4-2.7c-7.3-2.1-10.4-5.6-10.4-10.6C836.6,250,841.5,245.6,849,245.6z"/>
	<path class="st13" d="M888.6,277.1h-0.3c-2.2,1.6-5,2.7-8,2.7c-8.3,0-15.1-7.1-15.1-16.7c0-10.3,7.6-17.4,15.7-17.4
		c3.9,0,6.8,1.3,8.8,3.1h0.3v-2.1h8.4v46.2h-9.8V277.1z M875.1,262.7c0,4.8,3,8.4,7.5,8.4c2.6,0,4.6-1.1,6-2.7V256
		c-1.1-0.8-3.2-1.7-5.7-1.7C878.1,254.3,875.1,257.9,875.1,262.7z"/>
	<path class="st13" d="M925.4,246.6h9.7v17.2c0,5.5-1.5,9.1-4.1,11.7c-2.6,2.6-6.4,4.2-10.8,4.2c-4.2,0-7.8-1.5-10.4-4
		c-2.5-2.5-3.9-6.2-3.9-11.9v-17.2h9.7v18.3c0,2.7,0.5,3.9,1.3,4.8c0.9,0.9,2.1,1.4,3.5,1.4s2.6-0.5,3.5-1.4c0.8-0.9,1.3-2,1.3-4.8
		V246.6z"/>
	<path class="st13" d="M958.1,245.6c10,0,17.1,7.1,17.1,16.7c0,10.3-7.1,17.4-17.1,17.4c-10,0-17.1-7.1-17.1-16.7
		C941,252.7,948.1,245.6,958.1,245.6z M958.1,271c4.2,0,7.2-3.6,7.2-8.4s-3-8.4-7.2-8.4s-7.2,3.6-7.2,8.4S953.9,271,958.1,271z"/>
	<path class="st13" d="M987.8,276.5c-1.9-1.9-3.2-4.5-3.2-8.8v-13.4h-7.4v-7.7h7.4v-11h9.7v11h9.7v7.7h-9.7v10.6
		c0,3.3,0.5,4.4,1.3,5.2c0.9,1.1,2.5,1.5,4.8,1.5c0.8,0,2.5-0.1,3.3-0.3h0.3v7c-1.9,0.9-4.5,1.3-6.4,1.3
		C992.6,279.7,989.8,278.4,987.8,276.5z"/>
	<path class="st13" d="M1017.7,265.4c0.9,3.8,3.7,6,8.2,6c2.8,0,5.8-0.8,8.4-3h0.3l3.3,6.7c-3.5,3.1-8.2,4.7-13.1,4.7
		c-10.3,0-17.1-6.8-17.1-16.7c0-10,6.8-17.4,16.1-17.4c9.6,0,15.1,7.1,15.1,16.7v3H1017.7z M1029.7,259c-0.1-2.5-2-5.4-5.5-5.4
		c-3.1,0-5.5,1.9-6.3,5.4H1029.7z"/>
	<path class="st13" d="M1079,231.9c5.6,0,9.2,1.5,11.9,4.2c2.7,2.6,4.4,6.3,4.4,10.4c0,4.4-1.7,8.2-4.4,11
		c-2.7,2.7-6.4,4.3-11.9,4.3h-7.5v17.1h-10.4v-46.9H1079z M1071.5,240.7v12.1h5.8c3.1,0,4.6-0.6,5.7-1.6c1.1-1.1,1.7-2.5,1.7-4.2
		c0-1.8-0.7-3.3-1.7-4.5s-2.6-1.8-5.7-1.8H1071.5z"/>
	<path class="st13" d="M1117.1,259.1v-0.5c0-2-0.5-2.9-1.3-3.5c-1.1-0.9-2.8-1.1-4.5-1.1c-3.3,0-7.6,1.7-9.7,3h-0.3l-1.9-7.2
		c3.4-2.4,8.6-4.2,13.4-4.2c4.4,0,7.8,0.9,10.4,3.3c2,2,3.3,4.6,3.3,9.2v14.7c0,2.4,0.3,4.8,0.7,6h-8.6c-0.2-0.8-0.4-1.8-0.4-3h-0.3
		c-2.1,2.3-5.2,3.7-8.4,3.7c-5.4,0-10.4-4.1-10.4-10.3c0-2.4,0.7-4.8,2.3-6.6c2.3-2.5,7-3.9,10.6-3.9
		C1114.6,258.7,1116.2,258.9,1117.1,259.1z M1117.1,269v-3.6c-1-0.3-2.4-0.4-3.6-0.4c-1.4,0-3.8,0.1-5,1.5c-0.3,0.5-0.5,1.2-0.5,1.9
		c0,2.1,1.7,3.3,3.8,3.3C1113.8,271.7,1115.8,270.7,1117.1,269z"/>
	<path class="st13" d="M1134.2,246.6h8.7v4.1h0.3c2.6-3.3,6-4.8,10.7-4.8h1.4v9h-1.4c-3.7,0-7.6,0.7-10,3.7v20.1h-9.7V246.6z"/>
	<path class="st13" d="M1167.8,276.5c-1.9-1.9-3.2-4.5-3.2-8.8v-13.4h-7.4v-7.7h7.4v-11h9.7v11h9.7v7.7h-9.7v10.6
		c0,3.3,0.5,4.4,1.3,5.2c0.9,1.1,2.5,1.5,4.8,1.5c0.8,0,2.5-0.1,3.3-0.3h0.3v7c-1.9,0.9-4.5,1.3-6.4,1.3
		C1172.6,279.7,1169.7,278.4,1167.8,276.5z"/>
	<path class="st13" d="M1201.7,292.8h-9.7l7-16.9l-13.3-29.3h10.1l7.8,18h0.3l7.2-18h9.7L1201.7,292.8z"/>
</g>
<g>
	<path class="st13" d="M722.4,527.3h10.2v-18.4h-0.2c-1.2,1.1-4.1,2.7-8.1,2.7v-6.9c4.4-0.5,8.5-2.2,10.9-6.8h5.5v29.4h8.6v7h-26.8
		V527.3z"/>
	<path class="st13" d="M754.3,517.8l2.8-19.9h19.6v7h-13.3l-0.7,5.5h0.2c1.2-0.4,3-0.5,3.7-0.5c7.1,0,11.7,5.4,11.7,12.2
		c0,7.3-5.8,13-13.8,13c-5.8,0-10-2.6-12-5.2l3.4-5.7h0.2c1.7,1.9,4.4,3.8,7.9,3.8c3.9,0,6.2-2.7,6.2-5.8c0-3.3-2.3-5.7-5.6-5.7
		c-2.2,0-4,0.8-5.5,2.1L754.3,517.8z"/>
	<path class="st13" d="M783.6,534.3V526h8.3v8.3H783.6z"/>
	<path class="st13" d="M809.9,535.1c-9.4,0-14.1-7.5-14.1-18.7c0-11.5,4.7-19.3,14.1-19.3c9.4,0,14.1,7.5,14.1,18.7
		C824,527.3,819.3,535.1,809.9,535.1z M809.9,527.9c4.3,0,5.8-5.1,5.8-11.9s-1.6-11.9-5.8-11.9s-5.8,5-5.8,11.9
		S805.6,527.9,809.9,527.9z"/>
	<path class="st13" d="M827.2,530.6l5.6-5.1c3.6-3.4,11.1-9.1,11.1-15.3c0-2.8-1.8-6-5.8-6c-2.9,0-5.7,2-7.7,5.1h-0.2l-4-4.8
		c2.7-4.6,7.8-7.4,12.7-7.4c8.1,0,13.1,5.6,13.1,12.7c0,6.2-3.8,11.1-9.3,15.9L841,527v0.2h11.2v7h-25V530.6z"/>
	<path class="st13" d="M858.1,534.3V526h8.3v8.3H858.1z"/>
	<path class="st13" d="M871.5,530.6l5.6-5.1c3.6-3.4,11.1-9.1,11.1-15.3c0-2.8-1.8-6-5.8-6c-2.9,0-5.7,2-7.7,5.1h-0.2l-4-4.8
		c2.7-4.6,7.8-7.4,12.7-7.4c8.1,0,13.1,5.6,13.1,12.7c0,6.2-3.8,11.1-9.3,15.9l-1.7,1.5v0.2h11.2v7h-25V530.6z"/>
	<path class="st13" d="M914.6,535.1c-9.4,0-14.1-7.5-14.1-18.7c0-11.5,4.7-19.3,14.1-19.3c9.4,0,14.1,7.5,14.1,18.7
		C928.7,527.3,924,535.1,914.6,535.1z M914.6,527.9c4.3,0,5.8-5.1,5.8-11.9s-1.6-11.9-5.8-11.9s-5.8,5-5.8,11.9
		S910.4,527.9,914.6,527.9z"/>
	<path class="st13" d="M931.9,527.3h10.2v-18.4h-0.2c-1.2,1.1-4.1,2.7-8.1,2.7v-6.9c4.4-0.5,8.5-2.2,10.9-6.8h5.5v29.4h8.6v7h-26.8
		V527.3z"/>
	<path class="st13" d="M964.8,527.5c0.9,0.2,2,0.3,2.8,0.3c6.4,0,10.5-2.4,12.2-8.1c-2.1,1.4-4.6,2.1-7.2,2.1c-7,0-11.3-5.5-11.3-12
		c0-6.9,5.4-12.8,12.9-12.8c9.1,0,14.4,7.1,14.4,16.4c0,13.1-8.3,21.3-19.4,21.3c-1.2,0-2.8-0.1-4.6-0.5v-6.8H964.8z M980.6,512.6
		c0-4.4-2.1-8.4-6.2-8.4c-3.2,0-5.2,2.5-5.2,5.4c0,2.7,2,5.3,5.2,5.3C976.9,514.9,979.2,514,980.6,512.6z"/>
	<path class="st13" d="M1005.1,497.8h6.8v47.4h-6.8V497.8z"/>
	<path class="st13" d="M1062.4,528.7c-2.6,2.9-7.3,6.4-14.6,6.4c-11.1,0-18.9-8-18.9-18.7c0-11.2,8.1-19.3,19-19.3
		c7.1,0,11.6,3.2,14.1,5.7l-3.5,5.5h-0.2c-2.3-2.1-5.6-4.1-9.8-4.1c-7,0-11.3,5.2-11.3,11.9c0,6.7,4.1,12,11.3,12
		c2.2,0,4.8-0.7,6.5-1.8V521h-7.8v-6.8h15.4V528.7z"/>
	<path class="st13" d="M1074.4,523.9c0.7,3,2.9,4.7,6.4,4.7c2.2,0,4.5-0.6,6.6-2.3h0.2l2.6,5.2c-2.7,2.4-6.4,3.6-10.2,3.6
		c-8,0-13.3-5.3-13.3-13c0-7.8,5.3-13.5,12.5-13.5c7.5,0,11.7,5.5,11.7,13v2.3H1074.4z M1083.7,518.9c-0.1-1.9-1.6-4.2-4.3-4.2
		c-2.4,0-4.3,1.5-4.9,4.2H1083.7z"/>
	<path class="st13" d="M1111.6,520.5c0-2.2-0.4-3.2-1.1-3.9c-0.6-0.6-1.6-1-2.6-1c-2.6,0-4,1.6-4.4,2.1v16.7h-7.5v-25h6.8v2.6h0.2
		c1.6-2.1,4.2-3.4,7.3-3.4c2.4,0,4.6,1,6.2,2.6c1.6,1.6,2.7,3.6,2.7,7.8v15.4h-7.5V520.5z"/>
	<path class="st13" d="M1131.6,523.9c0.7,3,2.9,4.7,6.4,4.7c2.2,0,4.5-0.6,6.6-2.3h0.2l2.6,5.2c-2.7,2.4-6.4,3.6-10.2,3.6
		c-8,0-13.3-5.3-13.3-13c0-7.8,5.3-13.5,12.5-13.5c7.5,0,11.7,5.5,11.7,13v2.3H1131.6z M1140.9,518.9c-0.1-1.9-1.6-4.2-4.3-4.2
		c-2.4,0-4.3,1.5-4.9,4.2H1140.9z"/>
	<path class="st13" d="M1149.4,509.3h7.8l5.4,13.3h0.2l5.4-13.3h7.5l-10.5,25h-5.3L1149.4,509.3z"/>
	<path class="st13" d="M1191.5,519v-0.4c0-1.6-0.4-2.2-1-2.7c-0.9-0.7-2.2-0.9-3.5-0.9c-2.6,0-5.9,1.3-7.5,2.3h-0.2l-1.5-5.6
		c2.7-1.9,6.7-3.2,10.4-3.2c3.4,0,6.1,0.7,8.1,2.6c1.6,1.6,2.6,3.5,2.6,7.1v11.5c0,1.9,0.3,3.7,0.5,4.6h-6.7
		c-0.2-0.6-0.3-1.4-0.3-2.3h-0.2c-1.7,1.8-4,2.9-6.6,2.9c-4.2,0-8.1-3.2-8.1-8c0-1.9,0.5-3.7,1.8-5.1c1.8-2,5.4-3,8.3-3
		C1189.6,518.7,1190.8,518.8,1191.5,519z M1191.5,526.7v-2.8c-0.8-0.2-1.9-0.3-2.8-0.3c-1.1,0-3,0.1-3.9,1.2
		c-0.3,0.4-0.4,0.9-0.4,1.5c0,1.7,1.4,2.6,3,2.6S1190.6,528,1191.5,526.7z"/>
</g>
<line class="st14" x1="518" y1="365.4" x2="1404" y2="365.4"/>
<line class="st15" x1="518" y1="374.6" x2="1404" y2="374.6"/>
<line class="st16" x1="518" y1="388.4" x2="1404" y2="388.4"/>
</svg>
